<svg
    version="1.0"
    xmlns="http://www.w3.org/2000/svg"
    width="200.000000pt"
    height="200.000000pt"
    viewBox="0 0 200.000000 200.000000"
    preserveAspectRatio="xMidYMid meet"
  >
    <metadata>
      Created by potrace 1.10, written by Peter Selinger 2001-2011
    </metadata>
    <g
      transform="translate(0.000000,200.000000) scale(0.100000,-0.100000)"
      fill="#000000"
      stroke="none"
    >
      <path
        d="M580 1000 c0 -373 3 -570 10 -570 7 0 10 197 10 570 0 373 -3 570
-10 570 -7 0 -10 -197 -10 -570z"
      />
      <path
        d="M298 1533 c-36 -6 -35 -27 2 -78 16 -22 48 -66 71 -98 43 -61 84 -87
138 -87 17 0 31 -6 35 -16 3 -9 6 -163 6 -344 0 -355 1 -351 -55 -345 -73 7
-198 13 -180 8 11 -3 25 -9 30 -13 10 -9 157 -30 202 -30 l23 0 0 385 0 384
-62 3 -63 3 -30 90 c-17 50 -37 102 -45 118 -13 27 -18 28 -72 20z m59 -49 c2
-5 -3 -19 -11 -29 -14 -20 -15 -19 -24 5 -6 17 -6 27 2 32 13 9 29 5 33 -8z"
      />
      <path
        d="M470 1350 c0 -5 23 -10 50 -10 28 0 50 5 50 10 0 6 -22 10 -50 10
-27 0 -50 -4 -50 -10z"
      />
      <path
        d="M315 1330 c-4 -6 -2 -16 3 -23 24 -29 70 -125 76 -159 4 -24 1 -51
-10 -80 -74 -195 -81 -256 -43 -334 29 -56 35 -44 16 29 -17 64 -13 128 12
179 10 21 14 35 10 32 -5 -3 -6 2 -3 10 3 9 10 14 14 11 5 -3 6 5 2 17 -4 16
-2 20 10 16 12 -5 14 9 14 90 -1 66 -5 97 -14 100 -6 2 -12 10 -12 17 0 7 -5
15 -12 17 -8 3 -7 9 4 18 13 13 12 18 -14 42 -33 30 -43 34 -53 18z"
      />
      <path
        d="M825 1268 c-3 -7 -13 -40 -24 -73 -32 -97 -86 -245 -114 -312 -14
-34 -28 -77 -32 -95 -4 -18 -13 -44 -20 -58 -34 -69 -34 -70 47 -70 l74 0 20
63 20 62 115 3 116 3 18 -67 18 -66 166 4 c160 3 168 4 217 32 48 26 85 68 72
81 -3 3 -18 -5 -34 -18 -64 -53 -92 -61 -225 -65 -184 -6 -172 -20 -165 201 3
100 9 220 13 267 l8 85 103 3 c142 4 209 -9 245 -48 15 -17 27 -42 27 -56 0
-35 -26 -81 -50 -89 -24 -8 -54 -50 -46 -64 4 -5 34 -28 68 -51 l63 -42 17 22
c16 19 18 41 16 166 -2 98 1 147 9 155 8 8 50 10 140 7 186 -7 227 -30 240
-135 7 -64 -8 -111 -51 -152 -37 -36 -84 -50 -167 -51 -77 0 -89 -15 -89 -109
0 -40 -5 -81 -10 -92 -14 -24 -59 -26 -66 -1 -3 9 -12 31 -19 47 -13 29 -14
28 -14 -32 l-1 -63 71 0 70 0 -3 110 -3 110 65 0 c92 1 132 12 183 54 37 30
48 47 57 88 18 74 6 155 -28 191 -51 54 -74 60 -249 65 l-163 5 0 -189 c0
-189 0 -189 -19 -158 -13 21 -33 35 -67 46 l-49 16 47 23 c54 26 71 57 70 125
-1 103 -47 125 -269 132 l-163 5 -1 -299 c-1 -245 -3 -291 -13 -254 -22 88
-26 90 -153 90 -126 0 -135 -5 -163 -89 -13 -40 -15 -41 -57 -41 -48 0 -48 0
-30 43 7 18 26 68 41 112 27 76 80 223 124 345 l20 55 68 0 67 0 24 -75 c23
-70 53 -123 53 -92 0 14 -23 92 -47 160 l-16 42 -84 0 c-58 0 -85 -4 -88 -12z"
      />
      <path
        d="M1207 1192 c-13 -14 -17 -38 -17 -90 0 -62 3 -73 22 -86 50 -35 145
-11 173 44 24 46 19 78 -19 116 -30 30 -40 34 -88 34 -41 0 -59 -5 -71 -18z
m140 -34 c28 -26 30 -67 5 -98 -14 -18 -32 -24 -75 -28 l-55 -4 -4 76 -3 76
54 0 c42 0 60 -5 78 -22z"
      />
      <path
        d="M1657 1192 c-13 -15 -17 -39 -17 -114 0 -120 10 -133 96 -126 50 4
61 9 91 41 28 32 33 44 33 88 0 46 -4 55 -39 90 -35 36 -43 39 -93 39 -40 0
-59 -5 -71 -18z m149 -39 c42 -45 44 -93 5 -142 -16 -21 -30 -26 -83 -29 l-63
-4 0 101 0 101 58 0 c50 0 61 -4 83 -27z"
      />
      <path
        d="M864 1103 c-9 -32 -25 -80 -35 -107 -11 -27 -19 -57 -19 -67 0 -32
43 -51 107 -48 75 4 94 24 81 83 -15 71 -60 196 -71 196 -5 0 -7 -10 -4 -22 6
-29 53 -187 62 -210 6 -16 -1 -18 -74 -18 -45 0 -81 2 -81 5 0 3 7 22 16 43
16 38 54 174 54 192 0 5 -4 10 -9 10 -6 0 -18 -26 -27 -57z"
      />
      <path
        d="M1212 944 c-20 -13 -22 -24 -22 -94 0 -70 2 -81 22 -94 13 -10 44
-16 74 -16 142 0 192 144 72 206 -36 19 -118 18 -146 -2z m157 -40 c21 -18 31
-35 31 -54 0 -19 -10 -36 -31 -54 -26 -22 -40 -26 -92 -26 l-62 0 0 80 0 80
62 0 c52 0 66 -4 92 -26z"
      />
      <path
        d="M180 773 c-77 -12 -170 -36 -170 -43 0 -17 50 -47 107 -64 32 -10 67
-21 78 -25 39 -16 91 -30 135 -36 25 -4 53 -11 63 -17 11 -6 23 -5 35 2 16 11
16 11 0 6 -10 -3 -18 -2 -18 2 0 5 -29 16 -65 27 -37 10 -68 22 -71 27 -3 4
-18 8 -34 8 -16 0 -32 5 -35 10 -4 6 -10 8 -13 6 -4 -2 -32 4 -62 14 -30 11
-47 19 -37 20 10 0 16 4 13 9 -6 9 11 14 90 26 52 8 87 -10 78 -40 -4 -16 -3
-17 5 -5 9 12 13 13 20 2 4 -8 16 -12 25 -10 13 2 8 12 -23 46 -39 43 -51 46
-121 35z"
      />
    </g>
  </svg>